# xmcd
#
# Track frame offsets:
#  150
#  20411
#  39801
#  59369
#  79484
#  98658
#  114141
#  129798
#  144698
#  172230
#
# Disc length: 2528 seconds
#
# Revision: 0
# Processed by: cddbd v1.5.1PL2 Copyright (c) Steve Scherf et al.
# Submitted via: Collectorz.com_Music_Collector 6.11
#
DISCID=7b09de0a
DTITLE=Indigenous - Chasing The Sun
DYEAR=2006
DGENRE=Blues
TTITLE0=Runaway
TTITLE1=I'll Be Waiting
TTITLE2=Number Nine Train
TTITLE3=Come On Home
TTITLE4=Fool Me Again
TTITLE5=Feel Alright Now
TTITLE6=The Way You Shake
TTITLE7=Out Of Nowhere
TTITLE8=Leaving
TTITLE9=Born In Time
EXTD=
EXTT0=
EXTT1=
EXTT2=
EXTT3=
EXTT4=
EXTT5=
EXTT6=
EXTT7=
EXTT8=
EXTT9=
PLAYORDER=
